<?xml version="1.0" encoding="utf-8"?>
<!-- Generator: Adobe Illustrator 15.0.0, SVG Export Plug-In . SVG Version: 6.00 Build 0)  -->
<!DOCTYPE svg PUBLIC "-//W3C//DTD SVG 1.1//EN" "http://www.w3.org/Graphics/SVG/1.1/DTD/svg11.dtd">
<svg version="1.1" id="Layer_1" xmlns="http://www.w3.org/2000/svg" xmlns:xlink="http://www.w3.org/1999/xlink" x="0px" y="0px"
	 width="1133.858px" height="566.929px" viewBox="0 0 1133.858 566.929" enable-background="new 0 0 1133.858 566.929"
	 xml:space="preserve">
<g>
	<path fill="#E6E7E8" d="M86.385,437.499v74.169H73.342v-74.169H53.471V425.24h52.73v12.259H86.385z"/>
	<path fill="#E6E7E8" d="M130.887,425.24v86.428h-13.043V425.24H130.887z"/>
	<path fill="#E6E7E8" d="M148.631,511.668l18.192-92.921l29.667,67.172l30.732-67.172l16.345,92.921h-13.378l-8.34-52.17
		l-25.582,56.145l-24.853-56.2l-9.292,52.226H148.631z"/>
	<path fill="#E6E7E8" d="M257.562,468.062c0-12.166,4.459-22.615,13.378-31.347c8.881-8.732,19.555-13.099,32.02-13.099
		c12.314,0,22.875,4.404,31.683,13.211c8.844,8.808,13.267,19.387,13.267,31.738c0,12.427-4.441,22.97-13.323,31.627
		c-8.919,8.696-19.685,13.042-32.299,13.042c-11.158,0-21.178-3.861-30.06-11.587C262.451,493.103,257.562,481.908,257.562,468.062z
		 M270.717,468.203c0,9.546,3.209,17.393,9.628,23.545c6.381,6.152,13.751,9.229,22.111,9.229c9.068,0,16.717-3.132,22.95-9.396
		c6.231-6.337,9.348-14.056,9.348-23.154c0-9.209-3.079-16.928-9.236-23.155c-6.121-6.264-13.696-9.396-22.727-9.396
		c-8.994,0-16.589,3.132-22.783,9.396C273.813,451.461,270.717,459.105,270.717,468.203z"/>
	<path fill="#E6E7E8" d="M385.077,437.499v74.169h-13.042v-74.169h-19.872V425.24h52.73v12.259H385.077z"/>
	<path fill="#E6E7E8" d="M429.58,459.051h37.28V425.24h13.043v86.428H466.86v-40.36h-37.28v40.36h-13.043V425.24h13.043V459.051z"/>
	<path fill="#E6E7E8" d="M518.079,474.332l-28.212-49.092h15.002l19.759,34.538l19.816-34.538h15.001l-28.324,49.092v37.336h-13.043
		V474.332z"/>
	<path fill="#E6E7E8" d="M634.063,474.835l26.757,36.833h-15.954l-24.685-35.377h-2.351v35.377h-13.043V425.24h15.281
		c11.42,0,19.667,2.146,24.743,6.438c5.597,4.777,8.396,11.083,8.396,18.92c0,6.121-1.755,11.382-5.262,15.785
		C644.438,470.788,639.809,473.604,634.063,474.835z M617.83,464.927h4.142c12.352,0,18.528-4.72,18.528-14.162
		c0-8.844-6.008-13.267-18.024-13.267h-4.646V464.927z"/>
	<path fill="#E6E7E8" d="M724.575,490.677h-37l-9.627,20.992h-14.05l42.765-91.858l41.257,91.858h-14.277L724.575,490.677z
		 M719.259,478.418l-12.819-29.387l-13.434,29.387H719.259z"/>
	<path fill="#E6E7E8" d="M758.723,511.668v-92.306l63.03,65.941V425.24h13.045v91.69l-63.03-65.773v60.511H758.723z"/>
	<path fill="#E6E7E8" d="M900.849,466.663h35.711v2.854c0,6.494-0.762,12.24-2.294,17.242c-1.493,4.627-4.013,8.956-7.555,12.986
		c-8.025,9.031-18.231,13.546-30.621,13.546c-12.089,0-22.445-4.366-31.066-13.098c-8.622-8.769-12.931-19.293-12.931-31.571
		c0-12.539,4.384-23.175,13.156-31.907c8.768-8.769,19.439-13.155,32.018-13.155c6.754,0,13.061,1.375,18.918,4.123
		c5.6,2.75,11.102,7.216,16.513,13.398l-9.289,8.9c-7.093-9.44-15.731-14.162-25.92-14.162c-9.144,0-16.809,3.153-23.006,9.46
		c-6.193,6.196-9.293,13.958-9.293,23.286c0,9.629,3.452,17.558,10.359,23.791c6.453,5.785,13.452,8.676,20.991,8.676
		c6.418,0,12.18-2.159,17.295-6.477c5.11-4.355,7.966-9.565,8.566-15.634h-21.552V466.663z"/>
	<path fill="#E6E7E8" d="M1000.656,437.499h-34.648v20.768h33.642v12.259h-33.642v28.883h34.648v12.259h-47.694V425.24h47.694
		V437.499z"/>
	<path fill="#E6E7E8" d="M1030.826,425.24v74.169h25.415v12.259h-38.456V425.24H1030.826z"/>
</g>
<path fill="none" stroke="#E9E9EA" stroke-width="11.3386" stroke-miterlimit="10" d="M746.621,187.153
	c0,94.972-76.983,171.965-171.95,171.965c-94.976,0-171.958-76.993-171.958-171.965S479.695,15.198,574.67,15.198
	C669.637,15.198,746.621,92.181,746.621,187.153z"/>
<g>
	<path fill="#E0E1E2" d="M522.762,246.296v-98.562h-33.187v-12.205h80.791v12.205h-33.187v98.562H522.762z"/>
	<path fill="#E0E1E2" d="M598.914,199.191v47.104h-14.417V135.528h29.586c9.648,0,16.754,0.988,21.316,2.958
		c4.562,1.973,8.09,4.957,10.586,8.948c2.495,3.992,3.743,8.294,3.743,12.904c0,4.277-0.83,8.579-2.492,12.904
		c-1.662,4.326-3.952,8.188-6.871,11.586c-2.919,3.398-7.133,6.618-12.639,9.66l32.03,51.807h-17.169l-29.332-47.104H598.914z
		 M598.914,188.129h20.131c4.525-2.479,7.893-5.005,10.104-7.579c2.208-2.573,3.883-5.313,5.024-8.221
		c1.14-2.907,1.71-5.814,1.71-8.722c0-5.195-1.888-9.33-5.663-12.404c-3.776-3.074-10.626-4.611-20.551-4.611h-10.756V188.129z"/>
</g>
<line fill="none" stroke="#E6E7E8" stroke-width="1.4173" stroke-miterlimit="10" x1="33.003" y1="390.119" x2="1098.109" y2="390.119"/>
<line fill="none" stroke="#E6E7E8" stroke-width="1.4173" stroke-miterlimit="10" x1="33.003" y1="541.327" x2="1098.109" y2="541.327"/>
</svg>
